<svg xmlns="http://www.w3.org/2000/svg" viewBox="0 0 234 89"><defs><style>.cls-1,.cls-2{fill:#fff;}.cls-1,.cls-2,.cls-3{stroke:#000;stroke-linecap:round;stroke-linejoin:round;}.cls-1{stroke-width:4px;}.cls-2,.cls-3{stroke-width:2px;}.cls-3{fill:none;}</style></defs><title>compactsedan</title><g id="Layer_2" data-name="Layer 2"><g id="Layer_1-2" data-name="Layer 1"><path class="cls-1" d="M8.16,71.4a8.53,8.53,0,0,0,3.53.76H24.33L169.75,72s33.19.6,41,0,20.52-6,20.52-6l.6-10.69s-1.81-5.43-1.81-7.24,2.41-18.1,1.81-20.52l-21.07-3.21S190.27,8.79,180.61,5.77,136,1.55,125.1,2.15,94.93,7.58,90.1,10,46.65,33.53,46.65,33.53,22,39.29,7,45.94a5.27,5.27,0,0,0-3.14,4.83v6.3L2,59.48,2.81,66a5.72,5.72,0,0,0,3.31,4.5Z"/><path class="cls-2" d="M70.64,34.85S96.84,16.76,108.7,13s25.58-3.12,25.58-3.12l-.62,21.84Z"/><circle class="cls-2" cx="196" cy="72.67" r="15"/><line class="cls-3" x1="127.62" y1="42.73" x2="119.21" y2="43.01"/><circle class="cls-2" cx="196" cy="72.67" r="8"/><path class="cls-3" d="M10.28,60s-.5,3.47,1.49,5,6.93,1,6.93,1"/><circle class="cls-2" cx="50" cy="73" r="15"/><circle class="cls-2" cx="50" cy="73" r="8"/><path class="cls-2" d="M141.39,9.89V31.11l49.92-2.5s-6.49-11.23-19-15.6S141.39,9.89,141.39,9.89Z"/><path class="cls-3" d="M35.19,44.39s-19.91,3-22.33,7.24v1.09a3.1,3.1,0,0,0,3.68,3.05l6-1.12Z"/><path class="cls-3" d="M224.25,33.53s-13.46-1.81-17.69,7.24l15.69,5.05Z"/><line class="cls-3" x1="186.62" y1="38.73" x2="178.21" y2="39.01"/></g></g></svg>