<svg xmlns="http://www.w3.org/2000/svg" viewBox="0 0 237.31 77.7"><defs><style>.cls-1,.cls-3{fill:#fff;}.cls-1,.cls-2,.cls-3{stroke:#000;stroke-linecap:round;stroke-linejoin:round;}.cls-1{stroke-width:4px;}.cls-2{fill:none;}.cls-2,.cls-3{stroke-width:2px;}</style></defs><title>coupe</title><g id="Layer_2" data-name="Layer 2"><g id="Layer_1-2" data-name="Layer 1"><path class="cls-1" d="M72.76,22.84S53.37,25,44.27,26,21.82,33.65,14.14,37.29A40.71,40.71,0,0,0,2,46v5.26l2.83,1.42L5,59.34l-.81,2.22,27.91,3s57.24-.81,61.29-1,64.93-.81,76.05-.81,43.08-2.22,49.35-3.84,11.12-1.82,12.94-3,4-8.09,3.44-9.3-3-2.22-2.43-4.25,1.62-8.29,1-9.71-3.24-1.08-3.44-3.17a4.43,4.43,0,0,1,1.21-3.71c.61-.81-7.89-.4-7.89-.4S196.78,15.44,190.51,13,158.72.94,135.09,2.1,109.75,5,89.38,14.64C80.12,19,72.76,22.84,72.76,22.84Z"/><line class="cls-2" x1="131.64" y1="32.29" x2="143.78" y2="32.29"/><path class="cls-2" d="M207.05,27.61s-6.66.74-7.16,2.47,3.46,6.38,5.18,6.77,13.33-.35,14.32-1.34S222.35,31.56,207.05,27.61Z"/><path class="cls-2" d="M131.61,9a56.44,56.44,0,0,0-14.73,1.73,29.88,29.88,0,0,0-6.42,2.31c-5.26,2.83-25.69,13.35-25.69,13.35s51.37-1.21,56-1.21,8.09-.2,8.09-.2l3.84-14.16A139,139,0,0,0,131.61,9Z"/><path class="cls-2" d="M159.47,11.33l-3.64,14S169,25.09,173,23.74s6.74-6.81,6.74-6.81S173.43,13.56,159.47,11.33Z"/><circle class="cls-3" cx="179.87" cy="61.22" r="15.48"/><circle class="cls-3" cx="179.87" cy="61.22" r="8.22"/><circle class="cls-3" cx="50.02" cy="61.22" r="15.48"/><circle class="cls-3" cx="50.02" cy="61.22" r="8.22"/><path class="cls-2" d="M39.55,28.32s-14.13,3.08-23.44,10S35.41,35.61,39.55,33,44.2,27.07,39.55,28.32Z"/></g></g></svg>