<svg xmlns="http://www.w3.org/2000/svg" viewBox="0 0 185.89 95"><defs><style>.cls-1,.cls-3{fill:#fff;}.cls-1,.cls-2,.cls-3{stroke:#000;stroke-linecap:round;stroke-linejoin:round;}.cls-1{stroke-width:4px;}.cls-2{fill:none;}.cls-2,.cls-3{stroke-width:2px;}</style></defs><title>hatchback</title><g id="Layer_2" data-name="Layer 2"><g id="Layer_1-2" data-name="Layer 1"><path class="cls-1" d="M178,79l4.61-3.36,1.28-14.93-3.84-5.54s-.43-14.5-2.13-17.49-12.79-19.62-12.79-19.62l4.26-.85s1.71-.43-7.68-2.13-50.32-4.69-67-3.41S44,35.59,44,35.59c-15.14,3.2-27.08,8.74-32.63,12.15S5.84,58.41,5.84,58.41L2,61.4S2,71.63,5,77.6c2.28,4.57,9,4.64,11.35,4.42l37,2h87.18Z"/><line class="cls-2" x1="84.68" y1="12.5" x2="96.18" y2="1"/><polyline class="cls-2" points="172.44 32.12 167.75 32.12 167.75 43.2 176.28 54.29 178.98 54.29"/><path class="cls-2" d="M108.77,17.62,104.5,39.79,57.16,41.07a78.38,78.38,0,0,1,20-15.78C89.15,18.89,100.24,18,108.77,17.62Z"/><path class="cls-2" d="M114.16,17.19l-1.71,22.6s25.59-.85,30.28-2.13,14.5-5.54,14.5-5.54a16.76,16.76,0,0,0-14.07-13.22C130.8,16.76,114.16,17.19,114.16,17.19Z"/><line class="cls-2" x1="143.16" y1="18.89" x2="143.16" y2="37.66"/><line class="cls-2" x1="93.6" y1="44.76" x2="101.33" y2="44.76"/><line class="cls-2" x1="145.6" y1="43.98" x2="153.32" y2="43.54"/><path class="cls-2" d="M54.88,69.5"/><path class="cls-2" d="M54.88,46"/><path class="cls-2" d="M106.06,75"/><path class="cls-2" d="M107.77,42.2"/><path class="cls-2" d="M158.52,57.56"/><path class="cls-2" d="M13.78,60.93s0-5.12,2.56-7.25S27,48.14,38.08,48.14c0,0-3.6,3.92-14.5,9A82.88,82.88,0,0,1,13.78,60.93Z"/><circle class="cls-3" cx="39.5" cy="79" r="15"/><circle class="cls-3" cx="39.5" cy="79" r="8"/><circle class="cls-3" cx="157.5" cy="79" r="15"/><circle class="cls-3" cx="157.5" cy="79" r="8"/></g></g></svg>