<svg xmlns="http://www.w3.org/2000/svg" viewBox="0 0 256.14 83.13"><defs><style>.cls-1,.cls-3{fill:#fff;}.cls-1,.cls-2,.cls-3{stroke:#000;stroke-linecap:round;stroke-linejoin:round;}.cls-1{stroke-width:4px;}.cls-2{fill:none;}.cls-2,.cls-3{stroke-width:2px;}</style></defs><title>sedan</title><g id="Layer_2" data-name="Layer 2"><g id="Layer_1-2" data-name="Layer 1"><path class="cls-1" d="M216.44,71.56c1.28-.18,9.74-.37,10.87-.59C242.65,68,250.62,65,252.6,63s1.49-18.81,1.49-23.76a59.11,59.11,0,0,0-1.49-12.34s-31.87-3-35.34-4.48c-8-5.2-14.11-10.7-32-17.35-22.26-5-61.88-2.48-61.88-2.48S109.83,3.79,80.28,17.5C66.42,23.94,62,26.42,62,26.42S32.76,33.35,18.41,37.8,6.53,50.18,6.53,50.18L2.07,52.65S1.08,67,6.53,70s12.87,3,17.82,3H34"/><path class="cls-1" d="M61.25,72.95h120s6.37,0,8.54.08"/><path class="cls-2" d="M36.65,41.06s-3.94,5.64-9.07,7.7S13.9,52.12,13.9,52.12a7.57,7.57,0,0,1,5-6.55C25.06,43.1,28.6,42.39,36.65,41.06Z"/><path class="cls-2" d="M9.42,58.81s-.5,3.47,1.49,5,6.93,1,6.93,1"/><path class="cls-2" d="M137.88,9.42,135.4,31.69,71,34.17S97.78,19.81,106.2,16.35,122.53,9.42,137.88,9.42Z"/><path class="cls-2" d="M146.78,9.42,144.3,31.69l52.94-3,4.92-5.94c.35.46-13.29-9.16-23.21-11.39C170.14,9.42,161.62,9,146.78,9.42Z"/><path class="cls-2" d="M246.18,31.82s-13.37.49-15.84,2.47-2,1.49-2,1.49,4,7.43,18.32,6.44l.18-4.16a17.18,17.18,0,0,0-.13-3Z"/><circle class="cls-3" cx="47.12" cy="67.13" r="15"/><circle class="cls-3" cx="202.3" cy="67.13" r="15"/><circle class="cls-3" cx="47.12" cy="67.13" r="8"/><circle class="cls-3" cx="202.17" cy="67.13" r="8"/><line class="cls-2" x1="127.76" y1="39.51" x2="119.35" y2="39.79"/><line class="cls-2" x1="194.65" y1="36.41" x2="186.25" y2="36.94"/><line class="cls-2" x1="183.23" y1="13.52" x2="182.08" y2="29.2"/></g></g></svg>